<svg data-v-423bf9ae="" xmlns="http://www.w3.org/2000/svg" viewBox="0 0 166.30125920636274 60" class="font"><!----><!----><!----><g data-v-423bf9ae="" id="ef6ab375-4b26-43b9-9f21-5f1927c953e3" fill="black" transform="matrix(4.395604133605957,0,0,4.395604133605957,-0.9514710307121277,-13.36263370513916)"><path d="M5.01 5.11L7.07 9.67L2.94 9.67L5.00 5.11ZM5.19 3.39C5.14 3.28 5.10 3.19 5.03 3.19L4.98 3.19C4.90 3.19 4.87 3.28 4.80 3.39L0.24 13.01C0.18 13.13 0.24 13.23 0.36 13.23L1.18 13.23C1.33 13.23 1.39 13.17 1.47 13.01L2.56 10.63L7.45 10.63L8.54 13.01C8.62 13.17 8.68 13.23 8.82 13.23L9.63 13.23C9.77 13.23 9.83 13.13 9.77 13.01ZM16.91 11.77C16.80 11.65 16.74 11.68 16.59 11.76C15.92 12.25 15.08 12.46 14.39 12.46C12.98 12.46 11.79 11.34 11.69 10.04L17.53 10.04C17.71 10.04 17.74 9.98 17.74 9.81C17.74 7.71 16.46 5.95 14.28 5.95C12.24 5.95 10.61 7.63 10.61 9.67C10.61 11.72 12.24 13.38 14.35 13.38C15.39 13.38 16.52 13.05 17.18 12.40C17.28 12.31 17.28 12.22 17.18 12.10ZM11.72 9.31C11.76 8.05 12.82 6.83 14.27 6.83C15.69 6.83 16.60 8.05 16.66 9.31ZM24.84 12.84C24.84 14.52 24.28 15.75 22.47 15.75C21.27 15.75 20.54 15.43 20.10 15.27C19.95 15.20 19.91 15.23 19.87 15.40L19.73 15.93C19.68 16.09 19.71 16.13 19.85 16.18C20.15 16.30 21.10 16.69 22.62 16.69C24.79 16.69 25.89 15.41 25.89 12.73L25.89 6.33C25.89 6.16 25.83 6.10 25.68 6.10L25.35 6.10C25.23 6.10 25.17 6.16 25.12 6.33L25.00 7.63C24.65 7.10 23.90 5.95 22.25 5.95C20.29 5.95 19.01 7.64 19.01 9.67C19.01 11.72 20.27 13.38 22.25 13.38C23.90 13.38 24.67 12.14 24.84 11.75ZM22.46 6.89C23.91 6.89 24.85 8.27 24.85 9.66C24.85 11.06 23.91 12.43 22.46 12.43C20.99 12.43 20.06 11.10 20.06 9.67C20.06 8.12 20.99 6.89 22.46 6.89ZM28.87 13.01C28.87 13.17 28.91 13.23 29.08 13.23L29.69 13.23C29.86 13.23 29.92 13.17 29.92 13.01L29.92 6.33C29.92 6.16 29.88 6.10 29.69 6.10L29.08 6.10C28.91 6.10 28.87 6.16 28.87 6.33ZM28.64 3.77C28.64 4.17 28.97 4.49 29.37 4.49C29.78 4.49 30.11 4.17 30.11 3.77C30.11 3.36 29.78 3.04 29.37 3.04C28.97 3.04 28.64 3.36 28.64 3.77ZM35.13 12.53C34.20 12.53 33.38 12.18 32.76 11.75C32.59 11.62 32.52 11.69 32.45 11.83L32.26 12.18C32.17 12.33 32.17 12.40 32.30 12.49C33.33 13.17 34.44 13.38 35.18 13.38C36.99 13.38 38.05 12.46 38.05 11.17C38.05 9.81 36.71 9.37 35.32 9.17C34.05 8.99 33.35 8.85 33.35 8.08C33.35 7.31 33.92 6.80 35.10 6.80C36.01 6.80 36.54 7.01 37.30 7.48C37.46 7.59 37.53 7.52 37.60 7.38L37.79 7.04C37.86 6.92 37.88 6.83 37.72 6.73C36.74 6.13 35.77 5.95 35.04 5.95C33.39 5.95 32.35 6.80 32.35 8.13C32.35 9.60 33.68 9.93 35.07 10.11C36.34 10.29 37.04 10.61 37.04 11.23C37.04 11.94 36.48 12.53 35.13 12.53Z"></path></g><!----><!----></svg>